<mxfile host="app.diagrams.net" modified="2023-09-12T12:09:45.149Z" agent="Mozilla/5.0 (Windows NT 10.0; Win64; x64) AppleWebKit/537.36 (KHTML, like Gecko) Chrome/116.0.0.0 Safari/537.36" etag="G4g1ZzXpl2SXWoN8RwP_" version="21.7.2" type="device">
  <diagram name="Página-1" id="-x21Yi0QkFkRMxIUJ8O1">
    <mxGraphModel dx="880" dy="470" grid="1" gridSize="10" guides="1" tooltips="1" connect="1" arrows="1" fold="1" page="1" pageScale="1" pageWidth="827" pageHeight="1169" background="#030303" math="0" shadow="0">
      <root>
        <mxCell id="0" />
        <mxCell id="1" parent="0" />
        <mxCell id="3_xcx65u3ZCYnM6NNJk5-1" value="" style="strokeWidth=2;html=1;shape=mxgraph.flowchart.start_2;whiteSpace=wrap;" vertex="1" parent="1">
          <mxGeometry x="120" y="140" width="80" height="80" as="geometry" />
        </mxCell>
        <mxCell id="3_xcx65u3ZCYnM6NNJk5-2" value="" style="strokeWidth=2;html=1;shape=mxgraph.flowchart.start_2;whiteSpace=wrap;" vertex="1" parent="1">
          <mxGeometry x="597.5" y="160" width="85" height="70" as="geometry" />
        </mxCell>
        <mxCell id="3_xcx65u3ZCYnM6NNJk5-3" value="" style="strokeWidth=2;html=1;shape=mxgraph.flowchart.start_2;whiteSpace=wrap;" vertex="1" parent="1">
          <mxGeometry x="120" y="480" width="80" height="70" as="geometry" />
        </mxCell>
        <mxCell id="3_xcx65u3ZCYnM6NNJk5-37" style="edgeStyle=orthogonalEdgeStyle;rounded=0;orthogonalLoop=1;jettySize=auto;html=1;entryX=1;entryY=0.5;entryDx=0;entryDy=0;entryPerimeter=0;strokeColor=#FFFFFF;" edge="1" parent="1" source="3_xcx65u3ZCYnM6NNJk5-5" target="3_xcx65u3ZCYnM6NNJk5-1">
          <mxGeometry relative="1" as="geometry" />
        </mxCell>
        <mxCell id="3_xcx65u3ZCYnM6NNJk5-39" style="edgeStyle=orthogonalEdgeStyle;rounded=0;orthogonalLoop=1;jettySize=auto;html=1;strokeColor=#f3ecec;entryX=1;entryY=0.5;entryDx=0;entryDy=0;entryPerimeter=0;" edge="1" parent="1">
          <mxGeometry relative="1" as="geometry">
            <mxPoint x="310" y="300" as="sourcePoint" />
            <mxPoint x="200" y="265" as="targetPoint" />
            <Array as="points">
              <mxPoint x="250" y="300" />
              <mxPoint x="250" y="265" />
            </Array>
          </mxGeometry>
        </mxCell>
        <mxCell id="3_xcx65u3ZCYnM6NNJk5-42" style="edgeStyle=orthogonalEdgeStyle;rounded=0;orthogonalLoop=1;jettySize=auto;html=1;entryX=1.013;entryY=0.714;entryDx=0;entryDy=0;entryPerimeter=0;strokeColor=#FFFFFF;" edge="1" parent="1" source="3_xcx65u3ZCYnM6NNJk5-5" target="3_xcx65u3ZCYnM6NNJk5-16">
          <mxGeometry relative="1" as="geometry" />
        </mxCell>
        <mxCell id="3_xcx65u3ZCYnM6NNJk5-43" style="edgeStyle=orthogonalEdgeStyle;rounded=0;orthogonalLoop=1;jettySize=auto;html=1;entryX=1;entryY=0.614;entryDx=0;entryDy=0;entryPerimeter=0;strokeColor=#fcf8f8;" edge="1" parent="1" source="3_xcx65u3ZCYnM6NNJk5-5" target="3_xcx65u3ZCYnM6NNJk5-3">
          <mxGeometry relative="1" as="geometry" />
        </mxCell>
        <mxCell id="3_xcx65u3ZCYnM6NNJk5-44" style="edgeStyle=orthogonalEdgeStyle;rounded=0;orthogonalLoop=1;jettySize=auto;html=1;entryX=1.038;entryY=0.629;entryDx=0;entryDy=0;entryPerimeter=0;strokeColor=#fdf7f7;" edge="1" parent="1" source="3_xcx65u3ZCYnM6NNJk5-5" target="3_xcx65u3ZCYnM6NNJk5-15">
          <mxGeometry relative="1" as="geometry">
            <Array as="points">
              <mxPoint x="255" y="300" />
              <mxPoint x="255" y="354" />
            </Array>
          </mxGeometry>
        </mxCell>
        <mxCell id="3_xcx65u3ZCYnM6NNJk5-5" value="" style="image;html=1;image=img/lib/clip_art/people/Construction_Worker_Woman_128x128.png" vertex="1" parent="1">
          <mxGeometry x="310" y="260" width="80" height="80" as="geometry" />
        </mxCell>
        <mxCell id="3_xcx65u3ZCYnM6NNJk5-32" style="edgeStyle=orthogonalEdgeStyle;rounded=0;orthogonalLoop=1;jettySize=auto;html=1;entryX=0.5;entryY=1;entryDx=0;entryDy=0;entryPerimeter=0;strokeColor=#FFFFFF;" edge="1" parent="1" source="3_xcx65u3ZCYnM6NNJk5-6" target="3_xcx65u3ZCYnM6NNJk5-2">
          <mxGeometry relative="1" as="geometry" />
        </mxCell>
        <mxCell id="3_xcx65u3ZCYnM6NNJk5-35" style="edgeStyle=orthogonalEdgeStyle;rounded=0;orthogonalLoop=1;jettySize=auto;html=1;entryX=0.041;entryY=0.729;entryDx=0;entryDy=0;entryPerimeter=0;strokeColor=#FFFFFF;" edge="1" parent="1" source="3_xcx65u3ZCYnM6NNJk5-6" target="3_xcx65u3ZCYnM6NNJk5-19">
          <mxGeometry relative="1" as="geometry" />
        </mxCell>
        <mxCell id="3_xcx65u3ZCYnM6NNJk5-6" value="" style="image;html=1;image=img/lib/clip_art/people/Construction_Worker_Woman_128x128.png;imageBorder=none;" vertex="1" parent="1">
          <mxGeometry x="400" y="260" width="90" height="80" as="geometry" />
        </mxCell>
        <mxCell id="3_xcx65u3ZCYnM6NNJk5-8" value="Leitor" style="text;html=1;align=center;verticalAlign=middle;whiteSpace=wrap;rounded=0;fontColor=#FFFFFF;" vertex="1" parent="1">
          <mxGeometry x="415" y="335" width="60" height="30" as="geometry" />
        </mxCell>
        <mxCell id="3_xcx65u3ZCYnM6NNJk5-9" value="Bibliotecário" style="text;html=1;align=center;verticalAlign=middle;whiteSpace=wrap;rounded=0;fontColor=#FFFFFF;" vertex="1" parent="1">
          <mxGeometry x="320" y="340" width="70" height="20" as="geometry" />
        </mxCell>
        <mxCell id="3_xcx65u3ZCYnM6NNJk5-10" value="Empréstimo de Livros" style="text;html=1;strokeColor=none;fillColor=none;align=center;verticalAlign=middle;whiteSpace=wrap;rounded=0;" vertex="1" parent="1">
          <mxGeometry x="610" y="180" width="60" height="30" as="geometry" />
        </mxCell>
        <mxCell id="3_xcx65u3ZCYnM6NNJk5-11" value="Registrar Leitor" style="text;html=1;strokeColor=none;fillColor=none;align=center;verticalAlign=middle;whiteSpace=wrap;rounded=0;" vertex="1" parent="1">
          <mxGeometry x="130" y="165" width="60" height="30" as="geometry" />
        </mxCell>
        <mxCell id="3_xcx65u3ZCYnM6NNJk5-12" value="Listar Leitores Registrados" style="text;html=1;strokeColor=none;fillColor=none;align=center;verticalAlign=middle;whiteSpace=wrap;rounded=0;" vertex="1" parent="1">
          <mxGeometry x="130" y="500" width="60" height="30" as="geometry" />
        </mxCell>
        <mxCell id="3_xcx65u3ZCYnM6NNJk5-13" value="" style="strokeWidth=2;html=1;shape=mxgraph.flowchart.start_2;whiteSpace=wrap;" vertex="1" parent="1">
          <mxGeometry x="120" y="230" width="80" height="70" as="geometry" />
        </mxCell>
        <mxCell id="3_xcx65u3ZCYnM6NNJk5-15" value="" style="strokeWidth=2;html=1;shape=mxgraph.flowchart.start_2;whiteSpace=wrap;" vertex="1" parent="1">
          <mxGeometry x="120" y="310" width="80" height="70" as="geometry" />
        </mxCell>
        <mxCell id="3_xcx65u3ZCYnM6NNJk5-16" value="" style="strokeWidth=2;html=1;shape=mxgraph.flowchart.start_2;whiteSpace=wrap;" vertex="1" parent="1">
          <mxGeometry x="120" y="390" width="80" height="70" as="geometry" />
        </mxCell>
        <mxCell id="3_xcx65u3ZCYnM6NNJk5-17" value="Livros Emprestados" style="text;html=1;strokeColor=none;fillColor=none;align=center;verticalAlign=middle;whiteSpace=wrap;rounded=0;" vertex="1" parent="1">
          <mxGeometry x="130" y="410" width="60" height="30" as="geometry" />
        </mxCell>
        <mxCell id="3_xcx65u3ZCYnM6NNJk5-18" value="Livros Disponíveis" style="text;html=1;strokeColor=none;fillColor=none;align=center;verticalAlign=middle;whiteSpace=wrap;rounded=0;" vertex="1" parent="1">
          <mxGeometry x="130" y="330" width="60" height="30" as="geometry" />
        </mxCell>
        <mxCell id="3_xcx65u3ZCYnM6NNJk5-19" value="" style="strokeWidth=2;html=1;shape=mxgraph.flowchart.start_2;whiteSpace=wrap;" vertex="1" parent="1">
          <mxGeometry x="597.5" y="320" width="85" height="70" as="geometry" />
        </mxCell>
        <mxCell id="3_xcx65u3ZCYnM6NNJk5-20" value="Histórico de Ações" style="text;html=1;strokeColor=none;fillColor=none;align=center;verticalAlign=middle;whiteSpace=wrap;rounded=0;" vertex="1" parent="1">
          <mxGeometry x="130" y="250" width="60" height="30" as="geometry" />
        </mxCell>
        <mxCell id="3_xcx65u3ZCYnM6NNJk5-29" style="edgeStyle=orthogonalEdgeStyle;rounded=0;orthogonalLoop=1;jettySize=auto;html=1;exitX=0.75;exitY=0;exitDx=0;exitDy=0;entryX=0;entryY=0.5;entryDx=0;entryDy=0;" edge="1" parent="1" source="3_xcx65u3ZCYnM6NNJk5-9" target="3_xcx65u3ZCYnM6NNJk5-9">
          <mxGeometry relative="1" as="geometry" />
        </mxCell>
        <mxCell id="3_xcx65u3ZCYnM6NNJk5-30" value="Devolução de Livros" style="text;html=1;strokeColor=none;fillColor=none;align=center;verticalAlign=middle;whiteSpace=wrap;rounded=0;" vertex="1" parent="1">
          <mxGeometry x="610" y="340" width="60" height="30" as="geometry" />
        </mxCell>
      </root>
    </mxGraphModel>
  </diagram>
</mxfile>
